# xmcd
# Track frame offsets:
# 150
# 17813
# 31010
# 46265
# 66083
# 83544
# 99946
# 114130
# 126175
# 137248
# 154175
# 168442
# 184747
#
# Disc length: 2699 seconds
# Revision: 0
# Processed by: cddbd v1.5.2PL0 Copyright (c) Steve Scherf et al.
# Submitted via: VisiTrax 2.10.2.252 - For more info visit www.synapsa.com
#
DISCID=990a890d
DTITLE=H.P. Lange - A compilation of roots blues
DYEAR=2008
DGENRE=Blues
TTITLE0=Trad. - Keep your hands off her
TTITLE1=Lange - Decatur st. Rag
TTITLE2=Johnson - Stop Breakin´ down
TTITLE3=Son House - Preachin´the blues
TTITLE4=Lange - Comin down like rain
TTITLE5=Johnson - Terraplane blues
TTITLE6=Lange - Something that I ate
TTITLE7=Lange - Hard times on my trail
TTITLE8=Lange - Stumblin´Rag
TTITLE9=Lange - Deprivation blues
TTITLE10=Lange - Walking add for love
TTITLE11=Trad. - Need somebody on your bond
TTITLE12=Trad. - Frankie and Johnny
EXTD=
EXTT0=
EXTT1=
EXTT2=
EXTT3=
EXTT4=
EXTT5=
EXTT6=
EXTT7=
EXTT8=
EXTT9=
EXTT10=
EXTT11=
EXTT12=
PLAYORDER=
